<?xml version="1.0" encoding="UTF-8"?>
<svg version="1.1" xmlns="http://www.w3.org/2000/svg" width="550" height="550">
<path d="M0 0 C40.26 0 80.52 0 122 0 C125.526875 9.9825 129.05375 19.965 132.6875 30.25 C134.81790819 36.27383072 136.94837618 42.29763228 139.08203125 48.3203125 C139.46570327 49.40330816 139.46570327 49.40330816 139.85712624 50.50818253 C145.83077573 67.36630673 151.89778349 84.18777085 158 101 C163.61 116.51 169.22 132.02 175 148 C175.33 99.16 175.66 50.32 176 0 C203.06 0 230.12 0 258 0 C258 85.47 258 170.94 258 259 C217.74 259 177.48 259 136 259 C132.844375 249.821875 129.68875 240.64375 126.4375 231.1875 C124.49693725 225.54788479 122.55630333 219.9082989 120.61328125 214.26953125 C120.37668604 213.58291727 120.14009083 212.89630329 119.89632607 212.18888283 C114.2138893 195.70124303 108.4777662 179.23257067 102.7171936 162.77207947 C100.41022758 156.17850659 98.11229423 149.58181247 95.81640625 142.984375 C94.77648566 139.99747756 93.73648557 137.0106078 92.69647217 134.02374268 C92.03094941 132.11171845 91.36578042 130.19957103 90.70098877 128.28729248 C89.7847789 125.65210005 88.86715242 123.01740487 87.94921875 120.3828125 C87.54407799 119.21573761 87.54407799 119.21573761 87.13075256 118.02508545 C86.87837326 117.3015387 86.62599396 116.57799194 86.3659668 115.83251953 C86.04078316 114.89788376 86.04078316 114.89788376 85.70903015 113.94436646 C84.85779785 111.61004043 83.92278995 109.30697489 83 107 C82.67 157.16 82.34 207.32 82 259 C54.94 259 27.88 259 0 259 C0 173.53 0 88.06 0 0 Z " fill="#FFFFFF" transform="translate(48,175)"/>
<path d="M0 0 C0.87963913 -0.00570007 1.75927826 -0.01140015 2.66557312 -0.01727295 C4.52549046 -0.02668448 6.38542419 -0.03324156 8.24536133 -0.03710938 C11.02782253 -0.04671483 13.80951173 -0.07773284 16.59179688 -0.109375 C32.45028258 -0.20310357 47.92039132 1.17519582 62.76171875 7.203125 C64.04949219 7.72326172 64.04949219 7.72326172 65.36328125 8.25390625 C75.26549033 12.71449889 83.73597987 19.95876507 87.76171875 30.203125 C91.50412694 41.43034956 92.30440107 52.08250843 87.76171875 63.203125 C81.97149827 73.54633937 72.02478255 78.75412316 61.171875 82.57421875 C58.76171875 83.203125 58.76171875 83.203125 54.76171875 83.203125 C54.76171875 83.863125 54.76171875 84.523125 54.76171875 85.203125 C55.344375 85.27789062 55.92703125 85.35265625 56.52734375 85.4296875 C68.41447448 87.33611413 78.90862021 93.01095459 86.76171875 102.203125 C94.42447379 114.61023346 95.5228937 127.45757786 93.18359375 141.73046875 C89.06398151 155.68097383 78.88059937 167.45918491 66.28710938 174.39697266 C52.8176443 181.4207077 37.94335733 184.30133489 22.8125 184.44140625 C21.95980026 184.449478 21.10710052 184.45754974 20.2285614 184.46586609 C18.42412302 184.47964451 16.61965926 184.49039433 14.81518555 184.49829102 C13.0110686 184.50970032 11.20698236 184.52997193 9.40307617 184.55981445 C-14.03564328 184.94617883 -39.15829551 181.53024522 -57.05078125 164.890625 C-68.36354656 152.68474664 -70.23828125 139.69221533 -70.23828125 123.203125 C-49.77828125 123.203125 -29.31828125 123.203125 -8.23828125 123.203125 C-6.91828125 126.833125 -5.59828125 130.463125 -4.23828125 134.203125 C-1.36188836 137.75631622 1.1970936 138.47701797 5.57421875 139.140625 C10.50760004 139.44206857 14.50441354 138.77913878 18.76171875 136.203125 C22.86145457 131.99826775 23.91683812 128.60002979 24.01171875 122.828125 C24.0375 121.89226562 24.06328125 120.95640625 24.08984375 119.9921875 C23.69564632 116.64150933 22.81114808 114.87193741 20.76171875 112.203125 C11.92788026 106.22004714 -1.16423193 107.45978868 -11.23828125 107.203125 C-11.23828125 96.643125 -11.23828125 86.083125 -11.23828125 75.203125 C-7.68844526 74.315666 -4.80073625 74.04478469 -1.17578125 73.890625 C6.04747703 73.37002981 13.30777897 72.11074742 18.984375 67.33203125 C22.19165307 63.49034653 22.99114144 58.92273985 22.57421875 53.98046875 C21.66402875 49.63268615 20.32408997 46.8494579 16.76171875 44.203125 C12.73268033 42.02526639 9.29946642 41.80507696 4.76171875 42.203125 C0.49441157 43.54188804 -1.45246244 45.07680579 -3.48828125 48.953125 C-5.20719217 52.66235382 -6.08520211 56.167348 -7.23828125 60.203125 C-27.03828125 60.203125 -46.83828125 60.203125 -67.23828125 60.203125 C-66.23936076 44.22039714 -65.45834481 32.37508911 -55.23828125 20.203125 C-54.76132812 19.58050781 -54.284375 18.95789063 -53.79296875 18.31640625 C-41.49845649 3.99426501 -17.680218 0.09095572 0 0 Z " fill="#FFFFFF" transform="translate(409.23828125,116.796875)"/>
</svg>
